<svg xmlns="http://www.w3.org/2000/svg" xmlns:xlink="http://www.w3.org/1999/xlink" id="Calque_1" x="0" y="0" version="1.1" viewBox="0 0 2048 2048" xml:space="preserve" style="enable-background:new 0 0 2048 2048"><style type="text/css">.st0,.st1{fill-rule:evenodd;clip-rule:evenodd;fill:#1c4a72}.st1{fill:#3383b9}</style><g><path d="M1156.9,338.1c0-47.9,10.2-93.3,28.2-134.6C1066.9,138,923.2,101.9,763.7,101.9H0V2048h507.2v-604.5h209.4 l439.4,604.5h566.1L1209,1325.6c191.7-118,306.7-315.6,306.7-554.4c0-33.2-2.9-65.1-7.1-96.3c-4.6,0.2-8.9,1.4-13.5,1.4 C1308.3,676.3,1156.9,524.9,1156.9,338.1z M766.7,1001.2H507.2v-457h259.5c141.5,0,232.9,88.5,232.9,227 C999.6,909.8,908.2,1001.2,766.7,1001.2z" class="st0"/><path d="M1833.2,338.1C1833.2,151.4,1681.8,0,1495.1,0c-138.9,0-257.9,83.9-310,203.6 c176.7,97.9,295.4,262.2,323.4,471.3C1688.9,667.7,1833.2,520.3,1833.2,338.1z" class="st1"/></g></svg>